<?xml version="1.0" encoding="UTF-8"?><svg xmlns="http://www.w3.org/2000/svg" xmlns:xlink="http://www.w3.org/1999/xlink" stroke-dasharray="none" shape-rendering="auto" font-family="'Dialog'" width="796" text-rendering="auto" fill-opacity="1" contentScriptType="text/ecmascript" color-interpolation="auto" color-rendering="auto" preserveAspectRatio="xMidYMid meet" font-size="12" viewBox="0 0 796 353" fill="black" stroke="black" image-rendering="auto" stroke-miterlimit="10" zoomAndPan="magnify" version="1.0" stroke-linecap="square" stroke-linejoin="miter" contentStyleType="text/css" font-style="normal" height="353" stroke-width="1" stroke-dashoffset="0" font-weight="normal" stroke-opacity="1">
<!--Generated by the Batik Graphics2D SVG Generator-->
<defs id="genericDefs"/>
<g>
<defs id="defs1">
<linearGradient x1="150" x2="150" y1="42" gradientUnits="userSpaceOnUse" y2="343" xlink:type="simple" xlink:actuate="onLoad" id="linearGradient1" xlink:show="other" spreadMethod="pad">
<stop stop-opacity="1" stop-color="rgb(255,128,0)" offset="0%"/>
<stop stop-opacity="1" stop-color="white" offset="100%"/>
</linearGradient>
<clipPath clipPathUnits="userSpaceOnUse" id="clipPath1">
<path d="M149 21 L787 21 L787 344 L149 344 L149 21 Z"/>
</clipPath>
<clipPath clipPathUnits="userSpaceOnUse" id="clipPath2">
<path d="M159 26 L258 26 L258 42 L159 42 L159 26 Z"/>
</clipPath>
<clipPath clipPathUnits="userSpaceOnUse" id="clipPath3">
<path d="M149 41 L787 41 L787 344 L149 344 L149 41 Z"/>
</clipPath>
<clipPath clipPathUnits="userSpaceOnUse" id="clipPath4">
<path d="M175 105 L462 105 L462 167 L175 167 L175 105 Z"/>
</clipPath>
<clipPath clipPathUnits="userSpaceOnUse" id="clipPath5">
<path d="M216 113 L421 113 L421 129 L216 129 L216 113 Z"/>
</clipPath>
<clipPath clipPathUnits="userSpaceOnUse" id="clipPath6">
<path d="M478 105 L758 105 L758 167 L478 167 L478 105 Z"/>
</clipPath>
<clipPath clipPathUnits="userSpaceOnUse" id="clipPath7">
<path d="M518 113 L718 113 L718 129 L518 129 L518 113 Z"/>
</clipPath>
<clipPath clipPathUnits="userSpaceOnUse" id="clipPath8">
<path d="M359 226 L593 226 L593 288 L359 288 L359 226 Z"/>
</clipPath>
<clipPath clipPathUnits="userSpaceOnUse" id="clipPath9">
<path d="M392 234 L560 234 L560 250 L392 250 L392 234 Z"/>
</clipPath>
<clipPath clipPathUnits="userSpaceOnUse" id="clipPath10">
<path d="M9 51 L91 51 L91 113 L9 113 L9 51 Z"/>
</clipPath>
<clipPath clipPathUnits="userSpaceOnUse" id="clipPath11">
<path d="M29 107 L74 107 L74 123 L29 123 L29 107 Z"/>
</clipPath>
<clipPath clipPathUnits="userSpaceOnUse" id="clipPath12">
<path d="M-1 -1 L797 -1 L797 354 L-1 354 L-1 -1 Z"/>
</clipPath>
<clipPath clipPathUnits="userSpaceOnUse" id="clipPath13">
<path d="M470 219 L479 219 L479 229 L470 229 L470 219 Z"/>
</clipPath>
<clipPath clipPathUnits="userSpaceOnUse" id="clipPath14">
<path d="M571 196 L633 196 L633 212 L571 212 L571 196 Z"/>
</clipPath>
<clipPath clipPathUnits="userSpaceOnUse" id="clipPath15">
<path d="M319 196 L381 196 L381 212 L319 212 L319 196 Z"/>
</clipPath>
</defs>
<g fill="rgb(255,128,0)" font-family="'Segoe UI'" stroke-linejoin="round" stroke="rgb(255,128,0)" stroke-width="0" stroke-miterlimit="0">
<rect x="150" y="22" clip-path="url(#clipPath1)" width="117" height="20" stroke="none"/>
<rect x="150" y="42" clip-path="url(#clipPath1)" fill="url(#linearGradient1)" width="636" height="301" stroke="none"/>
</g>
<g stroke-width="1.1" font-family="'Segoe UI'" stroke-linecap="butt">
<rect x="150" y="22" clip-path="url(#clipPath1)" fill="none" width="117" height="20"/>
<text x="160" y="40" clip-path="url(#clipPath2)" font-family="'Verdana'" stroke="none" xml:space="preserve">Sistema 3DMob</text>
<rect x="150" y="42" clip-path="url(#clipPath3)" fill="none" width="635" height="300"/>
<ellipse clip-path="url(#clipPath4)" fill="white" rx="142" cx="318" ry="29.5" cy="135.5" stroke="none"/>
<ellipse clip-path="url(#clipPath4)" fill="white" rx="142" cx="318" ry="29.5" cy="135.5" stroke="none"/>
<ellipse clip-path="url(#clipPath4)" fill="none" rx="142.5" cx="318.5" ry="30" cy="136" stroke-width="0.1"/>
<text x="217" y="127" clip-path="url(#clipPath5)" font-family="'Verdana'" stroke="none" stroke-width="0.1" xml:space="preserve">UC1.3.1 Seleziona formato .json</text>
<ellipse clip-path="url(#clipPath6)" fill="white" rx="138.5" cx="617.5" ry="29.5" cy="135.5" stroke="none" stroke-width="0.1"/>
<ellipse clip-path="url(#clipPath6)" fill="white" rx="138.5" cx="617.5" ry="29.5" cy="135.5" stroke="none" stroke-width="0.1"/>
<ellipse clip-path="url(#clipPath6)" fill="none" rx="139" cx="618" ry="30" cy="136" stroke-width="0.1"/>
<text x="519" y="127" clip-path="url(#clipPath7)" font-family="'Verdana'" stroke="none" stroke-width="0.1" xml:space="preserve">UC1.3.2 Seleziona formato .xml</text>
<ellipse clip-path="url(#clipPath8)" fill="white" rx="115.5" cx="475.5" ry="29.5" cy="256.5" stroke="none" stroke-width="0.1"/>
<ellipse clip-path="url(#clipPath8)" fill="white" rx="115.5" cx="475.5" ry="29.5" cy="256.5" stroke="none" stroke-width="0.1"/>
<ellipse clip-path="url(#clipPath8)" fill="none" rx="116" cx="476" ry="30" cy="257" stroke-width="0.1"/>
<text x="393" y="248" clip-path="url(#clipPath9)" font-family="'Verdana'" stroke="none" stroke-width="0.1" xml:space="preserve">UC1.3.3 Sceglie precisione</text>
<line clip-path="url(#clipPath3)" fill="none" x1="150" x2="786" y1="42" y2="42"/>
<rect x="150" y="22" clip-path="url(#clipPath1)" fill="none" width="117" height="20" stroke-width="0.1"/>
</g>
<g fill="white" stroke-width="0.1" font-family="'Verdana'" stroke-linecap="butt" stroke="white">
<polygon clip-path="url(#clipPath10)" points=" 50 72 50 78 67 78 67 80 50 80 50 94 67 111 67 112 65 112 49 96 33 112 31 112 31 111 48 94 48 80 31 80 31 78 48 78 48 72 50 72" stroke="none"/>
<circle r="9.5" clip-path="url(#clipPath10)" cx="48.5" cy="61.5" stroke="none"/>
<polygon fill="none" stroke-width="1.1" clip-path="url(#clipPath10)" points=" 50 72 50 78 67 78 67 80 50 80 50 94 67 111 67 112 65 112 49 96 33 112 31 112 31 111 48 94 48 80 31 80 31 78 48 78 48 72 50 72" stroke="black"/>
<circle clip-path="url(#clipPath10)" fill="none" r="10" cx="49" cy="62" stroke="black" stroke-width="1.1"/>
<text x="30" y="121" clip-path="url(#clipPath11)" fill="black" stroke="none" stroke-width="1.1" xml:space="preserve">Utente</text>
</g>
<g text-rendering="optimizeLegibility" stroke-width="1.1" stroke-dasharray="6.6,3.3" font-family="'Verdana'" stroke-linecap="butt">
<line clip-path="url(#clipPath12)" fill="none" x1="618" x2="618" y1="166" y2="186"/>
<line clip-path="url(#clipPath12)" fill="none" x1="618" x2="474" y1="186" y2="186"/>
<line clip-path="url(#clipPath12)" fill="none" x1="474" x2="474" y1="186" y2="227"/>
<line clip-path="url(#clipPath13)" fill="none" x1="471" x2="474" y1="220" y2="227" stroke-dasharray="none"/>
<line clip-path="url(#clipPath13)" fill="none" x1="474" x2="477" y1="227" y2="220" stroke-dasharray="none"/>
<text x="572" y="210" clip-path="url(#clipPath14)" stroke-dasharray="none" stroke="none" xml:space="preserve">«include»</text>
<line clip-path="url(#clipPath12)" fill="none" x1="318" x2="318" y1="165" y2="186"/>
<line clip-path="url(#clipPath12)" fill="none" x1="318" x2="474" y1="186" y2="186"/>
<line clip-path="url(#clipPath12)" fill="none" x1="474" x2="474" y1="186" y2="227"/>
<line clip-path="url(#clipPath13)" fill="none" x1="471" x2="474" y1="220" y2="227" stroke-dasharray="none"/>
<line clip-path="url(#clipPath13)" fill="none" x1="474" x2="477" y1="227" y2="220" stroke-dasharray="none"/>
<text x="320" y="210" clip-path="url(#clipPath15)" stroke-dasharray="none" stroke="none" xml:space="preserve">«include»</text>
<line clip-path="url(#clipPath12)" fill="none" x1="318" x2="318" y1="106" y2="70" stroke-dasharray="none"/>
<line clip-path="url(#clipPath12)" fill="none" x1="318" x2="100" y1="70" y2="70" stroke-dasharray="none"/>
<line clip-path="url(#clipPath12)" fill="none" x1="100" x2="100" y1="70" y2="70" stroke-dasharray="none"/>
<line clip-path="url(#clipPath12)" fill="none" x1="618" x2="618" y1="106" y2="70" stroke-dasharray="none"/>
<line clip-path="url(#clipPath12)" fill="none" x1="618" x2="100" y1="70" y2="70" stroke-dasharray="none"/>
<line clip-path="url(#clipPath12)" fill="none" x1="100" x2="100" y1="70" y2="70" stroke-dasharray="none"/>
<line clip-path="url(#clipPath12)" fill="none" x1="618" x2="618" y1="166" y2="186"/>
<line clip-path="url(#clipPath12)" fill="none" x1="618" x2="474" y1="186" y2="186"/>
<line clip-path="url(#clipPath12)" fill="none" x1="474" x2="474" y1="186" y2="227"/>
<line clip-path="url(#clipPath13)" fill="none" x1="471" x2="474" y1="220" y2="227" stroke-dasharray="none"/>
<line clip-path="url(#clipPath13)" fill="none" x1="474" x2="477" y1="227" y2="220" stroke-dasharray="none"/>
<text x="572" y="210" clip-path="url(#clipPath14)" stroke-dasharray="none" stroke="none" xml:space="preserve">«include»</text>
<line clip-path="url(#clipPath12)" fill="none" x1="318" x2="318" y1="165" y2="186"/>
<line clip-path="url(#clipPath12)" fill="none" x1="318" x2="474" y1="186" y2="186"/>
<line clip-path="url(#clipPath12)" fill="none" x1="474" x2="474" y1="186" y2="227"/>
<line clip-path="url(#clipPath13)" fill="none" x1="471" x2="474" y1="220" y2="227" stroke-dasharray="none"/>
<line clip-path="url(#clipPath13)" fill="none" x1="474" x2="477" y1="227" y2="220" stroke-dasharray="none"/>
<text x="320" y="210" clip-path="url(#clipPath15)" stroke-dasharray="none" stroke="none" xml:space="preserve">«include»</text>
</g>
</g>
</svg>
