<?xml version="1.0" encoding="UTF-8"?><svg xmlns="http://www.w3.org/2000/svg" xmlns:xlink="http://www.w3.org/1999/xlink" stroke-dasharray="none" shape-rendering="auto" font-family="'Dialog'" width="871" text-rendering="auto" fill-opacity="1" contentScriptType="text/ecmascript" color-interpolation="auto" color-rendering="auto" preserveAspectRatio="xMidYMid meet" font-size="12" viewBox="0 0 871 386" fill="black" stroke="black" image-rendering="auto" stroke-miterlimit="10" zoomAndPan="magnify" version="1.0" stroke-linecap="square" stroke-linejoin="miter" contentStyleType="text/css" font-style="normal" height="386" stroke-width="1" stroke-dashoffset="0" font-weight="normal" stroke-opacity="1">
<!--Generated by the Batik Graphics2D SVG Generator-->
<defs id="genericDefs"/>
<g>
<defs id="defs1">
<linearGradient x1="125" x2="125" y1="30" gradientUnits="userSpaceOnUse" y2="376" xlink:type="simple" xlink:actuate="onLoad" id="linearGradient1" xlink:show="other" spreadMethod="pad">
<stop stop-opacity="1" stop-color="rgb(255,128,0)" offset="0%"/>
<stop stop-opacity="1" stop-color="white" offset="100%"/>
</linearGradient>
<clipPath clipPathUnits="userSpaceOnUse" id="clipPath1">
<path d="M124 9 L862 9 L862 377 L124 377 L124 9 Z"/>
</clipPath>
<clipPath clipPathUnits="userSpaceOnUse" id="clipPath2">
<path d="M134 14 L233 14 L233 30 L134 30 L134 14 Z"/>
</clipPath>
<clipPath clipPathUnits="userSpaceOnUse" id="clipPath3">
<path d="M124 29 L862 29 L862 377 L124 377 L124 29 Z"/>
</clipPath>
<clipPath clipPathUnits="userSpaceOnUse" id="clipPath4">
<path d="M139 84 L488 84 L488 146 L139 146 L139 84 Z"/>
</clipPath>
<clipPath clipPathUnits="userSpaceOnUse" id="clipPath5">
<path d="M189 92 L438 92 L438 108 L189 108 L189 92 Z"/>
</clipPath>
<clipPath clipPathUnits="userSpaceOnUse" id="clipPath6">
<path d="M496 84 L845 84 L845 146 L496 146 L496 84 Z"/>
</clipPath>
<clipPath clipPathUnits="userSpaceOnUse" id="clipPath7">
<path d="M546 92 L795 92 L795 108 L546 108 L546 92 Z"/>
</clipPath>
<clipPath clipPathUnits="userSpaceOnUse" id="clipPath8">
<path d="M329 259 L677 259 L677 321 L329 321 L329 259 Z"/>
</clipPath>
<clipPath clipPathUnits="userSpaceOnUse" id="clipPath9">
<path d="M379 267 L627 267 L627 283 L379 283 L379 267 Z"/>
</clipPath>
<clipPath clipPathUnits="userSpaceOnUse" id="clipPath10">
<path d="M9 184 L91 184 L91 246 L9 246 L9 184 Z"/>
</clipPath>
<clipPath clipPathUnits="userSpaceOnUse" id="clipPath11">
<path d="M29 240 L74 240 L74 256 L29 256 L29 240 Z"/>
</clipPath>
<clipPath clipPathUnits="userSpaceOnUse" id="clipPath12">
<path d="M-1 -1 L872 -1 L872 387 L-1 387 L-1 -1 Z"/>
</clipPath>
</defs>
<g fill="rgb(255,128,0)" font-family="'Segoe UI'" stroke-linejoin="round" stroke="rgb(255,128,0)" stroke-width="0" stroke-miterlimit="0">
<rect x="125" y="10" clip-path="url(#clipPath1)" width="117" height="20" stroke="none"/>
<rect x="125" y="30" clip-path="url(#clipPath1)" fill="url(#linearGradient1)" width="736" height="346" stroke="none"/>
</g>
<g stroke-width="1.1" font-family="'Segoe UI'" stroke-linecap="butt">
<rect x="125" y="10" clip-path="url(#clipPath1)" fill="none" width="117" height="20"/>
<text x="135" y="28" clip-path="url(#clipPath2)" font-family="'Verdana'" stroke="none" xml:space="preserve">Sistema 3DMob</text>
<rect x="125" y="30" clip-path="url(#clipPath3)" fill="none" width="735" height="345"/>
<ellipse clip-path="url(#clipPath4)" fill="white" rx="173" cx="313" ry="29.5" cy="114.5" stroke="none"/>
<ellipse clip-path="url(#clipPath4)" fill="white" rx="173" cx="313" ry="29.5" cy="114.5" stroke="none"/>
<ellipse clip-path="url(#clipPath4)" fill="none" rx="173.5" cx="313.5" ry="30" cy="115" stroke-width="0.1"/>
<text x="190" y="106" clip-path="url(#clipPath5)" font-family="'Verdana'" stroke="none" stroke-width="0.1" xml:space="preserve">UC1.2.1.1 Sceglie valore componente x</text>
<ellipse clip-path="url(#clipPath6)" fill="white" rx="173" cx="670" ry="29.5" cy="114.5" stroke="none" stroke-width="0.1"/>
<ellipse clip-path="url(#clipPath6)" fill="white" rx="173" cx="670" ry="29.5" cy="114.5" stroke="none" stroke-width="0.1"/>
<ellipse clip-path="url(#clipPath6)" fill="none" rx="173.5" cx="670.5" ry="30" cy="115" stroke-width="0.1"/>
<text x="547" y="106" clip-path="url(#clipPath7)" font-family="'Verdana'" stroke="none" stroke-width="0.1" xml:space="preserve">UC1.2.1.2 Sceglie valore componente y</text>
<ellipse clip-path="url(#clipPath8)" fill="white" rx="172.5" cx="502.5" ry="29.5" cy="289.5" stroke="none" stroke-width="0.1"/>
<ellipse clip-path="url(#clipPath8)" fill="white" rx="172.5" cx="502.5" ry="29.5" cy="289.5" stroke="none" stroke-width="0.1"/>
<ellipse clip-path="url(#clipPath8)" fill="none" rx="173" cx="503" ry="30" cy="290" stroke-width="0.1"/>
<text x="380" y="281" clip-path="url(#clipPath9)" font-family="'Verdana'" stroke="none" stroke-width="0.1" xml:space="preserve">UC1.2.1.3 Sceglie valore componente z</text>
<line clip-path="url(#clipPath3)" fill="none" x1="125" x2="861" y1="30" y2="30"/>
<rect x="125" y="10" clip-path="url(#clipPath1)" fill="none" width="117" height="20" stroke-width="0.1"/>
</g>
<g fill="white" stroke-width="0.1" font-family="'Verdana'" stroke-linecap="butt" stroke="white">
<polygon clip-path="url(#clipPath10)" points=" 50 205 50 211 67 211 67 213 50 213 50 227 67 244 67 245 65 245 49 229 33 245 31 245 31 244 48 227 48 213 31 213 31 211 48 211 48 205 50 205" stroke="none"/>
<circle r="9.5" clip-path="url(#clipPath10)" cx="48.5" cy="194.5" stroke="none"/>
<polygon fill="none" stroke-width="1.1" clip-path="url(#clipPath10)" points=" 50 205 50 211 67 211 67 213 50 213 50 227 67 244 67 245 65 245 49 229 33 245 31 245 31 244 48 227 48 213 31 213 31 211 48 211 48 205 50 205" stroke="black"/>
<circle clip-path="url(#clipPath10)" fill="none" r="10" cx="49" cy="195" stroke="black" stroke-width="1.1"/>
<text x="30" y="254" clip-path="url(#clipPath11)" fill="black" stroke="none" stroke-width="1.1" xml:space="preserve">Utente</text>
</g>
<g text-rendering="optimizeLegibility" stroke-width="1.1" font-family="'Verdana'" stroke-linecap="butt">
<line clip-path="url(#clipPath12)" fill="none" x1="313" x2="313" y1="144" y2="202"/>
<line clip-path="url(#clipPath12)" fill="none" x1="313" x2="100" y1="202" y2="202"/>
<line clip-path="url(#clipPath12)" fill="none" x1="100" x2="100" y1="202" y2="202"/>
<line clip-path="url(#clipPath12)" fill="none" x1="670" x2="670" y1="144" y2="202"/>
<line clip-path="url(#clipPath12)" fill="none" x1="670" x2="100" y1="202" y2="202"/>
<line clip-path="url(#clipPath12)" fill="none" x1="100" x2="100" y1="202" y2="202"/>
<line clip-path="url(#clipPath12)" fill="none" x1="503" x2="503" y1="260" y2="202"/>
<line clip-path="url(#clipPath12)" fill="none" x1="503" x2="100" y1="202" y2="202"/>
<line clip-path="url(#clipPath12)" fill="none" x1="100" x2="100" y1="202" y2="202"/>
</g>
</g>
</svg>
