<?xml version="1.0" encoding="UTF-8"?><svg xmlns="http://www.w3.org/2000/svg" xmlns:xlink="http://www.w3.org/1999/xlink" stroke-dasharray="none" shape-rendering="auto" font-family="'Dialog'" width="796" text-rendering="auto" fill-opacity="1" contentScriptType="text/ecmascript" color-interpolation="auto" color-rendering="auto" preserveAspectRatio="xMidYMid meet" font-size="12" viewBox="0 0 796 231" fill="black" stroke="black" image-rendering="auto" stroke-miterlimit="10" zoomAndPan="magnify" version="1.0" stroke-linecap="square" stroke-linejoin="miter" contentStyleType="text/css" font-style="normal" height="231" stroke-width="1" stroke-dashoffset="0" font-weight="normal" stroke-opacity="1">
<!--Generated by the Batik Graphics2D SVG Generator-->
<defs id="genericDefs"/>
<g>
<defs id="defs1">
<linearGradient x1="150" x2="150" y1="30" gradientUnits="userSpaceOnUse" y2="221" xlink:type="simple" xlink:actuate="onLoad" id="linearGradient1" xlink:show="other" spreadMethod="pad">
<stop stop-opacity="1" stop-color="rgb(255,128,0)" offset="0%"/>
<stop stop-opacity="1" stop-color="white" offset="100%"/>
</linearGradient>
<clipPath clipPathUnits="userSpaceOnUse" id="clipPath1">
<path d="M149 9 L787 9 L787 222 L149 222 L149 9 Z"/>
</clipPath>
<clipPath clipPathUnits="userSpaceOnUse" id="clipPath2">
<path d="M159 14 L258 14 L258 30 L159 30 L159 14 Z"/>
</clipPath>
<clipPath clipPathUnits="userSpaceOnUse" id="clipPath3">
<path d="M149 29 L787 29 L787 222 L149 222 L149 29 Z"/>
</clipPath>
<clipPath clipPathUnits="userSpaceOnUse" id="clipPath4">
<path d="M174 46 L477 46 L477 108 L174 108 L174 46 Z"/>
</clipPath>
<clipPath clipPathUnits="userSpaceOnUse" id="clipPath5">
<path d="M217 54 L434 54 L434 70 L217 70 L217 54 Z"/>
</clipPath>
<clipPath clipPathUnits="userSpaceOnUse" id="clipPath6">
<path d="M324 143 L633 143 L633 205 L324 205 L324 143 Z"/>
</clipPath>
<clipPath clipPathUnits="userSpaceOnUse" id="clipPath7">
<path d="M368 151 L589 151 L589 167 L368 167 L368 151 Z"/>
</clipPath>
<clipPath clipPathUnits="userSpaceOnUse" id="clipPath8">
<path d="M476 46 L777 46 L777 108 L476 108 L476 46 Z"/>
</clipPath>
<clipPath clipPathUnits="userSpaceOnUse" id="clipPath9">
<path d="M519 54 L734 54 L734 70 L519 70 L519 54 Z"/>
</clipPath>
<clipPath clipPathUnits="userSpaceOnUse" id="clipPath10">
<path d="M9 109 L91 109 L91 171 L9 171 L9 109 Z"/>
</clipPath>
<clipPath clipPathUnits="userSpaceOnUse" id="clipPath11">
<path d="M29 165 L74 165 L74 181 L29 181 L29 165 Z"/>
</clipPath>
<clipPath clipPathUnits="userSpaceOnUse" id="clipPath12">
<path d="M-1 -1 L797 -1 L797 232 L-1 232 L-1 -1 Z"/>
</clipPath>
</defs>
<g fill="rgb(255,128,0)" font-family="'Segoe UI'" stroke-linejoin="round" stroke="rgb(255,128,0)" stroke-width="0" stroke-miterlimit="0">
<rect x="150" y="10" clip-path="url(#clipPath1)" width="117" height="20" stroke="none"/>
<rect x="150" y="30" clip-path="url(#clipPath1)" fill="url(#linearGradient1)" width="636" height="191" stroke="none"/>
</g>
<g stroke-width="1.1" font-family="'Segoe UI'" stroke-linecap="butt">
<rect x="150" y="10" clip-path="url(#clipPath1)" fill="none" width="117" height="20"/>
<text x="160" y="28" clip-path="url(#clipPath2)" font-family="'Verdana'" stroke="none" xml:space="preserve">Sistema 3DMob</text>
<rect x="150" y="30" clip-path="url(#clipPath3)" fill="none" width="635" height="190"/>
<ellipse clip-path="url(#clipPath4)" fill="white" rx="150" cx="325" ry="29.5" cy="76.5" stroke="none"/>
<ellipse clip-path="url(#clipPath4)" fill="white" rx="150" cx="325" ry="29.5" cy="76.5" stroke="none"/>
<ellipse clip-path="url(#clipPath4)" fill="none" rx="150.5" cx="325.5" ry="30" cy="77" stroke-width="0.1"/>
<text x="218" y="68" clip-path="url(#clipPath5)" font-family="'Verdana'" stroke="none" stroke-width="0.1" xml:space="preserve">UC1.1.2.1 Sceglie estensione .3ds</text>
<ellipse clip-path="url(#clipPath6)" fill="white" rx="153" cx="478" ry="29.5" cy="173.5" stroke="none" stroke-width="0.1"/>
<ellipse clip-path="url(#clipPath6)" fill="white" rx="153" cx="478" ry="29.5" cy="173.5" stroke="none" stroke-width="0.1"/>
<ellipse clip-path="url(#clipPath6)" fill="none" rx="153.5" cx="478.5" ry="30" cy="174" stroke-width="0.1"/>
<text x="369" y="165" clip-path="url(#clipPath7)" font-family="'Verdana'" stroke="none" stroke-width="0.1" xml:space="preserve">UC1.1.2.3 Sceglie estensione .json</text>
<ellipse clip-path="url(#clipPath8)" fill="white" rx="149" cx="626" ry="29.5" cy="76.5" stroke="none" stroke-width="0.1"/>
<ellipse clip-path="url(#clipPath8)" fill="white" rx="149" cx="626" ry="29.5" cy="76.5" stroke="none" stroke-width="0.1"/>
<ellipse clip-path="url(#clipPath8)" fill="none" rx="149.5" cx="626.5" ry="30" cy="77" stroke-width="0.1"/>
<text x="520" y="68" clip-path="url(#clipPath9)" font-family="'Verdana'" stroke="none" stroke-width="0.1" xml:space="preserve">UC1.1.2.2 Sceglie estensione .obj</text>
<line clip-path="url(#clipPath3)" fill="none" x1="150" x2="786" y1="30" y2="30"/>
<rect x="150" y="10" clip-path="url(#clipPath1)" fill="none" width="117" height="20" stroke-width="0.1"/>
</g>
<g fill="white" stroke-width="0.1" font-family="'Verdana'" stroke-linecap="butt" stroke="white">
<polygon clip-path="url(#clipPath10)" points=" 50 130 50 136 67 136 67 138 50 138 50 152 67 169 67 170 65 170 49 154 33 170 31 170 31 169 48 152 48 138 31 138 31 136 48 136 48 130 50 130" stroke="none"/>
<circle r="9.5" clip-path="url(#clipPath10)" cx="48.5" cy="119.5" stroke="none"/>
<polygon fill="none" stroke-width="1.1" clip-path="url(#clipPath10)" points=" 50 130 50 136 67 136 67 138 50 138 50 152 67 169 67 170 65 170 49 154 33 170 31 170 31 169 48 152 48 138 31 138 31 136 48 136 48 130 50 130" stroke="black"/>
<circle clip-path="url(#clipPath10)" fill="none" r="10" cx="49" cy="120" stroke="black" stroke-width="1.1"/>
<text x="30" y="179" clip-path="url(#clipPath11)" fill="black" stroke="none" stroke-width="1.1" xml:space="preserve">Utente</text>
</g>
<g text-rendering="optimizeLegibility" stroke-width="1.1" font-family="'Verdana'" stroke-linecap="butt">
<line clip-path="url(#clipPath12)" fill="none" x1="325" x2="325" y1="106" y2="128"/>
<line clip-path="url(#clipPath12)" fill="none" x1="325" x2="100" y1="128" y2="128"/>
<line clip-path="url(#clipPath12)" fill="none" x1="100" x2="100" y1="128" y2="128"/>
<line clip-path="url(#clipPath12)" fill="none" x1="478" x2="478" y1="144" y2="128"/>
<line clip-path="url(#clipPath12)" fill="none" x1="478" x2="100" y1="128" y2="128"/>
<line clip-path="url(#clipPath12)" fill="none" x1="100" x2="100" y1="128" y2="128"/>
<line clip-path="url(#clipPath12)" fill="none" x1="626" x2="626" y1="106" y2="128"/>
<line clip-path="url(#clipPath12)" fill="none" x1="626" x2="100" y1="128" y2="128"/>
<line clip-path="url(#clipPath12)" fill="none" x1="100" x2="100" y1="128" y2="128"/>
</g>
</g>
</svg>
