<?xml version="1.0" encoding="UTF-8"?><svg xmlns="http://www.w3.org/2000/svg" xmlns:xlink="http://www.w3.org/1999/xlink" stroke-dasharray="none" shape-rendering="auto" font-family="'Dialog'" width="1236" text-rendering="auto" fill-opacity="1" contentScriptType="text/ecmascript" color-interpolation="auto" color-rendering="auto" preserveAspectRatio="xMidYMid meet" font-size="12" viewBox="0 0 1236 368" fill="black" stroke="black" image-rendering="auto" stroke-miterlimit="10" zoomAndPan="magnify" version="1.0" stroke-linecap="square" stroke-linejoin="miter" contentStyleType="text/css" font-style="normal" height="368" stroke-width="1" stroke-dashoffset="0" font-weight="normal" stroke-opacity="1">
<!--Generated by the Batik Graphics2D SVG Generator-->
<defs id="genericDefs"/>
<g>
<defs id="defs1">
<linearGradient x1="175" x2="175" y1="30" gradientUnits="userSpaceOnUse" y2="357" xlink:type="simple" xlink:actuate="onLoad" id="linearGradient1" xlink:show="other" spreadMethod="pad">
<stop stop-opacity="1" stop-color="rgb(255,128,0)" offset="0%"/>
<stop stop-opacity="1" stop-color="white" offset="100%"/>
</linearGradient>
<clipPath clipPathUnits="userSpaceOnUse" id="clipPath1">
<path d="M174 9 L1227 9 L1227 358 L174 358 L174 9 Z"/>
</clipPath>
<clipPath clipPathUnits="userSpaceOnUse" id="clipPath2">
<path d="M184 14 L283 14 L283 30 L184 30 L184 14 Z"/>
</clipPath>
<clipPath clipPathUnits="userSpaceOnUse" id="clipPath3">
<path d="M174 29 L1227 29 L1227 358 L174 358 L174 29 Z"/>
</clipPath>
<clipPath clipPathUnits="userSpaceOnUse" id="clipPath4">
<path d="M334 62 L586 62 L586 124 L334 124 L334 62 Z"/>
</clipPath>
<clipPath clipPathUnits="userSpaceOnUse" id="clipPath5">
<path d="M370 70 L550 70 L550 86 L370 86 L370 70 Z"/>
</clipPath>
<clipPath clipPathUnits="userSpaceOnUse" id="clipPath6">
<path d="M724 63 L962 63 L962 125 L724 125 L724 63 Z"/>
</clipPath>
<clipPath clipPathUnits="userSpaceOnUse" id="clipPath7">
<path d="M758 71 L928 71 L928 87 L758 87 L758 71 Z"/>
</clipPath>
<clipPath clipPathUnits="userSpaceOnUse" id="clipPath8">
<path d="M198 149 L452 149 L452 211 L198 211 L198 149 Z"/>
</clipPath>
<clipPath clipPathUnits="userSpaceOnUse" id="clipPath9">
<path d="M234 157 L416 157 L416 173 L234 173 L234 157 Z"/>
</clipPath>
<clipPath clipPathUnits="userSpaceOnUse" id="clipPath10">
<path d="M468 149 L837 149 L837 211 L468 211 L468 149 Z"/>
</clipPath>
<clipPath clipPathUnits="userSpaceOnUse" id="clipPath11">
<path d="M521 157 L784 157 L784 173 L521 173 L521 157 Z"/>
</clipPath>
<clipPath clipPathUnits="userSpaceOnUse" id="clipPath12">
<path d="M313 249 L559 249 L559 311 L313 311 L313 249 Z"/>
</clipPath>
<clipPath clipPathUnits="userSpaceOnUse" id="clipPath13">
<path d="M348 257 L524 257 L524 273 L348 273 L348 257 Z"/>
</clipPath>
<clipPath clipPathUnits="userSpaceOnUse" id="clipPath14">
<path d="M691 249 L1065 249 L1065 311 L691 311 L691 249 Z"/>
</clipPath>
<clipPath clipPathUnits="userSpaceOnUse" id="clipPath15">
<path d="M745 257 L1011 257 L1011 273 L745 273 L745 257 Z"/>
</clipPath>
<clipPath clipPathUnits="userSpaceOnUse" id="clipPath16">
<path d="M852 149 L1202 149 L1202 211 L852 211 L852 149 Z"/>
</clipPath>
<clipPath clipPathUnits="userSpaceOnUse" id="clipPath17">
<path d="M902 157 L1152 157 L1152 173 L902 173 L902 157 Z"/>
</clipPath>
<clipPath clipPathUnits="userSpaceOnUse" id="clipPath18">
<path d="M9 214 L91 214 L91 276 L9 276 L9 214 Z"/>
</clipPath>
<clipPath clipPathUnits="userSpaceOnUse" id="clipPath19">
<path d="M29 274 L74 274 L74 290 L29 290 L29 274 Z"/>
</clipPath>
<clipPath clipPathUnits="userSpaceOnUse" id="clipPath20">
<path d="M-1 -1 L1237 -1 L1237 369 L-1 369 L-1 -1 Z"/>
</clipPath>
<clipPath clipPathUnits="userSpaceOnUse" id="clipPath21">
<path d="M874 309 L883 309 L883 319 L874 319 L874 309 Z"/>
</clipPath>
<clipPath clipPathUnits="userSpaceOnUse" id="clipPath22">
<path d="M609 319 L671 319 L671 335 L609 335 L609 319 Z"/>
</clipPath>
</defs>
<g fill="rgb(255,128,0)" font-family="'Segoe UI'" stroke-linejoin="round" stroke="rgb(255,128,0)" stroke-width="0" stroke-miterlimit="0">
<rect x="175" y="10" clip-path="url(#clipPath1)" width="117" height="20" stroke="none"/>
<rect x="175" y="30" clip-path="url(#clipPath1)" fill="url(#linearGradient1)" width="1051" height="327" stroke="none"/>
</g>
<g stroke-width="1.1" font-family="'Segoe UI'" stroke-linecap="butt">
<rect x="175" y="10" clip-path="url(#clipPath1)" fill="none" width="117" height="20"/>
<text x="185" y="28" clip-path="url(#clipPath2)" font-family="'Verdana'" stroke="none" xml:space="preserve">Sistema 3DMob</text>
<rect x="175" y="30" clip-path="url(#clipPath3)" fill="none" width="1050" height="326"/>
<ellipse clip-path="url(#clipPath4)" fill="white" rx="124.5" cx="459.5" ry="29.5" cy="92.5" stroke="none"/>
<ellipse clip-path="url(#clipPath4)" fill="white" rx="124.5" cx="459.5" ry="29.5" cy="92.5" stroke="none"/>
<ellipse clip-path="url(#clipPath4)" fill="none" rx="125" cx="460" ry="30" cy="93" stroke-width="0.1"/>
<text x="371" y="84" clip-path="url(#clipPath5)" font-family="'Verdana'" stroke="none" stroke-width="0.1" xml:space="preserve">UC1.2.1 Effettua traslazione</text>
<ellipse clip-path="url(#clipPath6)" fill="white" rx="117.5" cx="842.5" ry="29.5" cy="93.5" stroke="none" stroke-width="0.1"/>
<ellipse clip-path="url(#clipPath6)" fill="white" rx="117.5" cx="842.5" ry="29.5" cy="93.5" stroke="none" stroke-width="0.1"/>
<ellipse clip-path="url(#clipPath6)" fill="none" rx="118" cx="843" ry="30" cy="94" stroke-width="0.1"/>
<text x="759" y="85" clip-path="url(#clipPath7)" font-family="'Verdana'" stroke="none" stroke-width="0.1" xml:space="preserve">UC1.2.2 Effettua rotazione</text>
<ellipse clip-path="url(#clipPath8)" fill="white" rx="125.5" cx="324.5" ry="29.5" cy="179.5" stroke="none" stroke-width="0.1"/>
<ellipse clip-path="url(#clipPath8)" fill="white" rx="125.5" cx="324.5" ry="29.5" cy="179.5" stroke="none" stroke-width="0.1"/>
<ellipse clip-path="url(#clipPath8)" fill="none" rx="126" cx="325" ry="30" cy="180" stroke-width="0.1"/>
<text x="235" y="171" clip-path="url(#clipPath9)" font-family="'Verdana'" stroke="none" stroke-width="0.1" xml:space="preserve">UC1.2.3 Modifica dimensione</text>
<ellipse clip-path="url(#clipPath10)" fill="white" rx="183" cx="652" ry="29.5" cy="179.5" stroke="none" stroke-width="0.1"/>
<ellipse clip-path="url(#clipPath10)" fill="white" rx="183" cx="652" ry="29.5" cy="179.5" stroke="none" stroke-width="0.1"/>
<ellipse clip-path="url(#clipPath10)" fill="none" rx="183.5" cx="652.5" ry="30" cy="180" stroke-width="0.1"/>
<text x="522" y="171" clip-path="url(#clipPath11)" font-family="'Verdana'" stroke="none" stroke-width="0.1" xml:space="preserve">UC1.2.4 Modifica caratteristiche materiale</text>
<ellipse clip-path="url(#clipPath12)" fill="white" rx="121.5" cx="435.5" ry="29.5" cy="279.5" stroke="none" stroke-width="0.1"/>
<ellipse clip-path="url(#clipPath12)" fill="white" rx="121.5" cx="435.5" ry="29.5" cy="279.5" stroke="none" stroke-width="0.1"/>
<ellipse clip-path="url(#clipPath12)" fill="none" rx="122" cx="436" ry="30" cy="280" stroke-width="0.1"/>
<text x="349" y="271" clip-path="url(#clipPath13)" font-family="'Verdana'" stroke="none" stroke-width="0.1" xml:space="preserve">UC1.2.6 Aggiungi fonte luce</text>
<ellipse clip-path="url(#clipPath14)" fill="white" rx="185.5" cx="877.5" ry="29.5" cy="279.5" stroke="none" stroke-width="0.1"/>
<ellipse clip-path="url(#clipPath14)" fill="white" rx="185.5" cx="877.5" ry="29.5" cy="279.5" stroke="none" stroke-width="0.1"/>
<ellipse clip-path="url(#clipPath14)" fill="none" rx="186" cx="878" ry="30" cy="280" stroke-width="0.1"/>
<text x="746" y="271" clip-path="url(#clipPath15)" font-family="'Verdana'" stroke="none" stroke-width="0.1" xml:space="preserve">UC1.2.7 Modifica caratteristiche fonte luce</text>
<ellipse clip-path="url(#clipPath16)" fill="white" rx="173.5" cx="1026.5" ry="29.5" cy="179.5" stroke="none" stroke-width="0.1"/>
<ellipse clip-path="url(#clipPath16)" fill="white" rx="173.5" cx="1026.5" ry="29.5" cy="179.5" stroke="none" stroke-width="0.1"/>
<ellipse clip-path="url(#clipPath16)" fill="none" rx="174" cx="1027" ry="30" cy="180" stroke-width="0.1"/>
<text x="903" y="171" clip-path="url(#clipPath17)" font-family="'Verdana'" stroke="none" stroke-width="0.1" xml:space="preserve">UC1.2.5 Modifica caratteristiche opacità</text>
<line clip-path="url(#clipPath3)" fill="none" x1="175" x2="1226" y1="30" y2="30"/>
<rect x="175" y="10" clip-path="url(#clipPath1)" fill="none" width="117" height="20" stroke-width="0.1"/>
</g>
<g fill="white" stroke-width="0.1" font-family="'Verdana'" stroke-linecap="butt" stroke="white">
<polygon clip-path="url(#clipPath18)" points=" 50 235 50 241 67 241 67 243 50 243 50 257 67 274 67 275 65 275 49 259 33 275 31 275 31 274 48 257 48 243 31 243 31 241 48 241 48 235 50 235" stroke="none"/>
<circle r="9.5" clip-path="url(#clipPath18)" cx="48.5" cy="224.5" stroke="none"/>
<polygon fill="none" stroke-width="1.1" clip-path="url(#clipPath18)" points=" 50 235 50 241 67 241 67 243 50 243 50 257 67 274 67 275 65 275 49 259 33 275 31 275 31 274 48 257 48 243 31 243 31 241 48 241 48 235 50 235" stroke="black"/>
<circle clip-path="url(#clipPath18)" fill="none" r="10" cx="49" cy="225" stroke="black" stroke-width="1.1"/>
<text x="30" y="288" clip-path="url(#clipPath19)" fill="black" stroke="none" stroke-width="1.1" xml:space="preserve">Utente</text>
</g>
<g text-rendering="optimizeLegibility" stroke-width="1.1" stroke-dasharray="6.6,3.3" font-family="'Verdana'" stroke-linecap="butt">
<line clip-path="url(#clipPath20)" fill="none" x1="436" x2="436" y1="310" y2="344"/>
<line clip-path="url(#clipPath20)" fill="none" x1="436" x2="878" y1="344" y2="344"/>
<line clip-path="url(#clipPath20)" fill="none" x1="878" x2="878" y1="344" y2="310"/>
<line clip-path="url(#clipPath21)" fill="none" x1="881" x2="878" y1="317" y2="310" stroke-dasharray="none"/>
<line clip-path="url(#clipPath21)" fill="none" x1="878" x2="875" y1="310" y2="317" stroke-dasharray="none"/>
<text x="610" y="333" clip-path="url(#clipPath22)" stroke-dasharray="none" stroke="none" xml:space="preserve">«include»</text>
<line clip-path="url(#clipPath20)" fill="none" x1="460" x2="460" y1="123" y2="232" stroke-dasharray="none"/>
<line clip-path="url(#clipPath20)" fill="none" x1="460" x2="100" y1="232" y2="232" stroke-dasharray="none"/>
<line clip-path="url(#clipPath20)" fill="none" x1="100" x2="100" y1="232" y2="232" stroke-dasharray="none"/>
<line clip-path="url(#clipPath20)" fill="none" x1="843" x2="843" y1="124" y2="232" stroke-dasharray="none"/>
<line clip-path="url(#clipPath20)" fill="none" x1="843" x2="100" y1="232" y2="232" stroke-dasharray="none"/>
<line clip-path="url(#clipPath20)" fill="none" x1="100" x2="100" y1="232" y2="232" stroke-dasharray="none"/>
<line clip-path="url(#clipPath20)" fill="none" x1="325" x2="325" y1="210" y2="232" stroke-dasharray="none"/>
<line clip-path="url(#clipPath20)" fill="none" x1="325" x2="100" y1="232" y2="232" stroke-dasharray="none"/>
<line clip-path="url(#clipPath20)" fill="none" x1="100" x2="100" y1="232" y2="232" stroke-dasharray="none"/>
<line clip-path="url(#clipPath20)" fill="none" x1="652" x2="652" y1="209" y2="232" stroke-dasharray="none"/>
<line clip-path="url(#clipPath20)" fill="none" x1="652" x2="100" y1="232" y2="232" stroke-dasharray="none"/>
<line clip-path="url(#clipPath20)" fill="none" x1="100" x2="100" y1="232" y2="232" stroke-dasharray="none"/>
<line clip-path="url(#clipPath20)" fill="none" x1="436" x2="436" y1="250" y2="232" stroke-dasharray="none"/>
<line clip-path="url(#clipPath20)" fill="none" x1="436" x2="100" y1="232" y2="232" stroke-dasharray="none"/>
<line clip-path="url(#clipPath20)" fill="none" x1="100" x2="100" y1="232" y2="232" stroke-dasharray="none"/>
<line clip-path="url(#clipPath20)" fill="none" x1="878" x2="878" y1="250" y2="232" stroke-dasharray="none"/>
<line clip-path="url(#clipPath20)" fill="none" x1="878" x2="100" y1="232" y2="232" stroke-dasharray="none"/>
<line clip-path="url(#clipPath20)" fill="none" x1="100" x2="100" y1="232" y2="232" stroke-dasharray="none"/>
<line clip-path="url(#clipPath20)" fill="none" x1="1027" x2="1027" y1="210" y2="232" stroke-dasharray="none"/>
<line clip-path="url(#clipPath20)" fill="none" x1="1027" x2="100" y1="232" y2="232" stroke-dasharray="none"/>
<line clip-path="url(#clipPath20)" fill="none" x1="100" x2="100" y1="232" y2="232" stroke-dasharray="none"/>
<line clip-path="url(#clipPath20)" fill="none" x1="436" x2="436" y1="310" y2="344"/>
<line clip-path="url(#clipPath20)" fill="none" x1="436" x2="878" y1="344" y2="344"/>
<line clip-path="url(#clipPath20)" fill="none" x1="878" x2="878" y1="344" y2="310"/>
<line clip-path="url(#clipPath21)" fill="none" x1="881" x2="878" y1="317" y2="310" stroke-dasharray="none"/>
<line clip-path="url(#clipPath21)" fill="none" x1="878" x2="875" y1="310" y2="317" stroke-dasharray="none"/>
<text x="610" y="333" clip-path="url(#clipPath22)" stroke-dasharray="none" stroke="none" xml:space="preserve">«include»</text>
</g>
</g>
</svg>
