<?xml version="1.0" encoding="UTF-8"?><svg xmlns="http://www.w3.org/2000/svg" xmlns:xlink="http://www.w3.org/1999/xlink" stroke-dasharray="none" shape-rendering="auto" font-family="'Dialog'" width="796" text-rendering="auto" fill-opacity="1" contentScriptType="text/ecmascript" color-interpolation="auto" color-rendering="auto" preserveAspectRatio="xMidYMid meet" font-size="12" viewBox="0 0 796 341" fill="black" stroke="black" image-rendering="auto" stroke-miterlimit="10" zoomAndPan="magnify" version="1.0" stroke-linecap="square" stroke-linejoin="miter" contentStyleType="text/css" font-style="normal" height="341" stroke-width="1" stroke-dashoffset="0" font-weight="normal" stroke-opacity="1">
<!--Generated by the Batik Graphics2D SVG Generator-->
<defs id="genericDefs"/>
<g>
<defs id="defs1">
<linearGradient x1="150" x2="150" y1="30" gradientUnits="userSpaceOnUse" y2="331" xlink:type="simple" xlink:actuate="onLoad" id="linearGradient1" xlink:show="other" spreadMethod="pad">
<stop stop-opacity="1" stop-color="rgb(255,128,0)" offset="0%"/>
<stop stop-opacity="1" stop-color="white" offset="100%"/>
</linearGradient>
<clipPath clipPathUnits="userSpaceOnUse" id="clipPath1">
<path d="M149 9 L787 9 L787 332 L149 332 L149 9 Z"/>
</clipPath>
<clipPath clipPathUnits="userSpaceOnUse" id="clipPath2">
<path d="M159 14 L258 14 L258 30 L159 30 L159 14 Z"/>
</clipPath>
<clipPath clipPathUnits="userSpaceOnUse" id="clipPath3">
<path d="M149 29 L787 29 L787 332 L149 332 L149 29 Z"/>
</clipPath>
<clipPath clipPathUnits="userSpaceOnUse" id="clipPath4">
<path d="M299 144 L673 144 L673 206 L299 206 L299 144 Z"/>
</clipPath>
<clipPath clipPathUnits="userSpaceOnUse" id="clipPath5">
<path d="M353 152 L619 152 L619 168 L353 168 L353 152 Z"/>
</clipPath>
<clipPath clipPathUnits="userSpaceOnUse" id="clipPath6">
<path d="M9 84 L91 84 L91 146 L9 146 L9 84 Z"/>
</clipPath>
<clipPath clipPathUnits="userSpaceOnUse" id="clipPath7">
<path d="M29 140 L74 140 L74 156 L29 156 L29 140 Z"/>
</clipPath>
<clipPath clipPathUnits="userSpaceOnUse" id="clipPath8">
<path d="M-1 -1 L797 -1 L797 342 L-1 342 L-1 -1 Z"/>
</clipPath>
</defs>
<g fill="rgb(255,128,0)" font-family="'Segoe UI'" stroke-linejoin="round" stroke="rgb(255,128,0)" stroke-width="0" stroke-miterlimit="0">
<rect x="150" y="10" clip-path="url(#clipPath1)" width="117" height="20" stroke="none"/>
<rect x="150" y="30" clip-path="url(#clipPath1)" fill="url(#linearGradient1)" width="636" height="301" stroke="none"/>
</g>
<g stroke-width="1.1" font-family="'Segoe UI'" stroke-linecap="butt">
<rect x="150" y="10" clip-path="url(#clipPath1)" fill="none" width="117" height="20"/>
<text x="160" y="28" clip-path="url(#clipPath2)" font-family="'Verdana'" stroke="none" xml:space="preserve">Sistema 3DMob</text>
<rect x="150" y="30" clip-path="url(#clipPath3)" fill="none" width="635" height="300"/>
<ellipse clip-path="url(#clipPath4)" fill="white" rx="185.5" cx="485.5" ry="29.5" cy="174.5" stroke="none"/>
<ellipse clip-path="url(#clipPath4)" fill="white" rx="185.5" cx="485.5" ry="29.5" cy="174.5" stroke="none"/>
<ellipse clip-path="url(#clipPath4)" fill="none" rx="186" cx="486" ry="30" cy="175" stroke-width="0.1"/>
<text x="354" y="166" clip-path="url(#clipPath5)" font-family="'Verdana'" stroke="none" stroke-width="0.1" xml:space="preserve">UC1.2.3.2.1 Sceglie componente s scalare</text>
<line clip-path="url(#clipPath3)" fill="none" x1="150" x2="786" y1="30" y2="30"/>
<rect x="150" y="10" clip-path="url(#clipPath1)" fill="none" width="117" height="20" stroke-width="0.1"/>
</g>
<g fill="white" stroke-width="0.1" font-family="'Verdana'" stroke-linecap="butt" stroke="white">
<polygon clip-path="url(#clipPath6)" points=" 50 105 50 111 67 111 67 113 50 113 50 127 67 144 67 145 65 145 49 129 33 145 31 145 31 144 48 127 48 113 31 113 31 111 48 111 48 105 50 105" stroke="none"/>
<circle r="9.5" clip-path="url(#clipPath6)" cx="48.5" cy="94.5" stroke="none"/>
<polygon fill="none" stroke-width="1.1" clip-path="url(#clipPath6)" points=" 50 105 50 111 67 111 67 113 50 113 50 127 67 144 67 145 65 145 49 129 33 145 31 145 31 144 48 127 48 113 31 113 31 111 48 111 48 105 50 105" stroke="black"/>
<circle clip-path="url(#clipPath6)" fill="none" r="10" cx="49" cy="95" stroke="black" stroke-width="1.1"/>
<text x="30" y="154" clip-path="url(#clipPath7)" fill="black" stroke="none" stroke-width="1.1" xml:space="preserve">Utente</text>
</g>
<g text-rendering="optimizeLegibility" stroke-width="1.1" font-family="'Verdana'" stroke-linecap="butt">
<line clip-path="url(#clipPath8)" fill="none" x1="486" x2="486" y1="145" y2="102"/>
<line clip-path="url(#clipPath8)" fill="none" x1="486" x2="100" y1="102" y2="102"/>
<line clip-path="url(#clipPath8)" fill="none" x1="100" x2="100" y1="102" y2="102"/>
</g>
</g>
</svg>
