<?xml version="1.0" encoding="UTF-8"?><svg xmlns="http://www.w3.org/2000/svg" xmlns:xlink="http://www.w3.org/1999/xlink" stroke-dasharray="none" shape-rendering="auto" font-family="'Dialog'" width="889" text-rendering="auto" fill-opacity="1" contentScriptType="text/ecmascript" color-interpolation="auto" color-rendering="auto" preserveAspectRatio="xMidYMid meet" font-size="12" viewBox="0 0 889 285" fill="black" stroke="black" image-rendering="auto" stroke-miterlimit="10" zoomAndPan="magnify" version="1.0" stroke-linecap="square" stroke-linejoin="miter" contentStyleType="text/css" font-style="normal" height="285" stroke-width="1" stroke-dashoffset="0" font-weight="normal" stroke-opacity="1">
<!--Generated by the Batik Graphics2D SVG Generator-->
<defs id="genericDefs"/>
<g>
<defs id="defs1">
<clipPath clipPathUnits="userSpaceOnUse" id="clipPath1">
<path d="M181 92 L524 92 L524 154 L181 154 L181 92 Z"/>
</clipPath>
<clipPath clipPathUnits="userSpaceOnUse" id="clipPath2">
<path d="M230 100 L475 100 L475 116 L230 116 L230 100 Z"/>
</clipPath>
<clipPath clipPathUnits="userSpaceOnUse" id="clipPath3">
<path d="M545 92 L880 92 L880 154 L545 154 L545 92 Z"/>
</clipPath>
<clipPath clipPathUnits="userSpaceOnUse" id="clipPath4">
<path d="M593 100 L832 100 L832 116 L593 116 L593 100 Z"/>
</clipPath>
<clipPath clipPathUnits="userSpaceOnUse" id="clipPath5">
<path d="M377 214 L721 214 L721 276 L377 276 L377 214 Z"/>
</clipPath>
<clipPath clipPathUnits="userSpaceOnUse" id="clipPath6">
<path d="M427 222 L671 222 L671 238 L427 238 L427 222 Z"/>
</clipPath>
<clipPath clipPathUnits="userSpaceOnUse" id="clipPath7">
<path d="M-1 -1 L890 -1 L890 286 L-1 286 L-1 -1 Z"/>
</clipPath>
<clipPath clipPathUnits="userSpaceOnUse" id="clipPath8">
<path d="M543 207 L552 207 L552 217 L543 217 L543 207 Z"/>
</clipPath>
<clipPath clipPathUnits="userSpaceOnUse" id="clipPath9">
<path d="M347 199 L409 199 L409 215 L347 215 L347 199 Z"/>
</clipPath>
<clipPath clipPathUnits="userSpaceOnUse" id="clipPath10">
<path d="M664 199 L726 199 L726 215 L664 215 L664 199 Z"/>
</clipPath>
</defs>
<g fill="white" font-family="'Segoe UI'" stroke-linejoin="round" stroke="white" stroke-width="0" stroke-miterlimit="0">
<ellipse clip-path="url(#clipPath1)" rx="170" cx="352" ry="29.5" cy="122.5" stroke="none"/>
<ellipse clip-path="url(#clipPath1)" rx="170" cx="352" ry="29.5" cy="122.5" stroke="none"/>
</g>
<g stroke-width="0.1" font-family="'Segoe UI'" stroke-linecap="butt">
<ellipse clip-path="url(#clipPath1)" fill="none" rx="170.5" cx="352.5" ry="30" cy="123"/>
<text x="231" y="114" clip-path="url(#clipPath2)" font-family="'Verdana'" stroke="none" xml:space="preserve">UC1.4.1 Visualizza anteprima minimale</text>
<ellipse clip-path="url(#clipPath3)" fill="white" rx="166" cx="712" ry="29.5" cy="122.5" stroke="none"/>
<ellipse clip-path="url(#clipPath3)" fill="white" rx="166" cx="712" ry="29.5" cy="122.5" stroke="none"/>
<ellipse clip-path="url(#clipPath3)" fill="none" rx="166.5" cx="712.5" ry="30" cy="123"/>
<text x="594" y="114" clip-path="url(#clipPath4)" font-family="'Verdana'" stroke="none" xml:space="preserve">UC1.4.2 Visulizza anteprima completa</text>
<ellipse clip-path="url(#clipPath5)" fill="white" rx="170.5" cx="548.5" ry="29.5" cy="244.5" stroke="none"/>
<ellipse clip-path="url(#clipPath5)" fill="white" rx="170.5" cx="548.5" ry="29.5" cy="244.5" stroke="none"/>
<ellipse clip-path="url(#clipPath5)" fill="none" rx="171" cx="549" ry="30" cy="245"/>
<text x="428" y="236" clip-path="url(#clipPath6)" font-family="'Verdana'" stroke="none" xml:space="preserve">UC1.4.3 Sposta punto di osservazione</text>
<line clip-path="url(#clipPath7)" fill="none" text-rendering="optimizeLegibility" x1="352" x2="352" y1="93" y2="70" stroke-width="1.1"/>
<line clip-path="url(#clipPath7)" fill="none" text-rendering="optimizeLegibility" x1="352" x2="23" y1="70" y2="70" stroke-width="1.1"/>
<line clip-path="url(#clipPath7)" fill="none" text-rendering="optimizeLegibility" x1="23" x2="23" y1="70" y2="100" stroke-width="1.1"/>
<line clip-path="url(#clipPath7)" fill="none" text-rendering="optimizeLegibility" x1="712" x2="712" y1="93" y2="70" stroke-width="1.1"/>
<line clip-path="url(#clipPath7)" fill="none" text-rendering="optimizeLegibility" x1="712" x2="23" y1="70" y2="70" stroke-width="1.1"/>
<line clip-path="url(#clipPath7)" fill="none" text-rendering="optimizeLegibility" x1="23" x2="23" y1="70" y2="100" stroke-width="1.1"/>
</g>
<g text-rendering="optimizeLegibility" stroke-width="1.1" stroke-dasharray="6.6,3.3" font-family="'Verdana'" stroke-linecap="butt">
<line clip-path="url(#clipPath7)" fill="none" x1="352" x2="352" y1="152" y2="183"/>
<line clip-path="url(#clipPath7)" fill="none" x1="352" x2="547" y1="183" y2="183"/>
<line clip-path="url(#clipPath7)" fill="none" x1="547" x2="547" y1="183" y2="215"/>
<line clip-path="url(#clipPath8)" fill="none" x1="544" x2="547" y1="208" y2="215" stroke-dasharray="none"/>
<line clip-path="url(#clipPath8)" fill="none" x1="547" x2="550" y1="215" y2="208" stroke-dasharray="none"/>
<text x="348" y="213" clip-path="url(#clipPath9)" stroke-dasharray="none" stroke="none" xml:space="preserve">«include»</text>
<line clip-path="url(#clipPath7)" fill="none" x1="713" x2="713" y1="152" y2="183"/>
<line clip-path="url(#clipPath7)" fill="none" x1="713" x2="547" y1="183" y2="183"/>
<line clip-path="url(#clipPath7)" fill="none" x1="547" x2="547" y1="183" y2="215"/>
<line clip-path="url(#clipPath8)" fill="none" x1="544" x2="547" y1="208" y2="215" stroke-dasharray="none"/>
<line clip-path="url(#clipPath8)" fill="none" x1="547" x2="550" y1="215" y2="208" stroke-dasharray="none"/>
<text x="665" y="213" clip-path="url(#clipPath10)" stroke-dasharray="none" stroke="none" xml:space="preserve">«include»</text>
</g>
</g>
</svg>
