<?xml version="1.0" encoding="UTF-8"?><svg xmlns="http://www.w3.org/2000/svg" xmlns:xlink="http://www.w3.org/1999/xlink" stroke-dasharray="none" shape-rendering="auto" font-family="'Dialog'" width="745" text-rendering="auto" fill-opacity="1" contentScriptType="text/ecmascript" color-interpolation="auto" color-rendering="auto" preserveAspectRatio="xMidYMid meet" font-size="12" viewBox="0 0 745 320" fill="black" stroke="black" image-rendering="auto" stroke-miterlimit="10" zoomAndPan="magnify" version="1.0" stroke-linecap="square" stroke-linejoin="miter" contentStyleType="text/css" font-style="normal" height="320" stroke-width="1" stroke-dashoffset="0" font-weight="normal" stroke-opacity="1">
<!--Generated by the Batik Graphics2D SVG Generator-->
<defs id="genericDefs"/>
<g>
<defs id="defs1">
<clipPath clipPathUnits="userSpaceOnUse" id="clipPath1">
<path d="M243 141 L395 141 L395 203 L243 203 L243 141 Z"/>
</clipPath>
<clipPath clipPathUnits="userSpaceOnUse" id="clipPath2">
<path d="M264 149 L374 149 L374 165 L264 165 L264 149 Z"/>
</clipPath>
<clipPath clipPathUnits="userSpaceOnUse" id="clipPath3">
<path d="M501 141 L736 141 L736 203 L501 203 L501 141 Z"/>
</clipPath>
<clipPath clipPathUnits="userSpaceOnUse" id="clipPath4">
<path d="M534 149 L703 149 L703 165 L534 165 L534 149 Z"/>
</clipPath>
<clipPath clipPathUnits="userSpaceOnUse" id="clipPath5">
<path d="M357 249 L591 249 L591 311 L357 311 L357 249 Z"/>
</clipPath>
<clipPath clipPathUnits="userSpaceOnUse" id="clipPath6">
<path d="M390 257 L558 257 L558 273 L390 273 L390 257 Z"/>
</clipPath>
<clipPath clipPathUnits="userSpaceOnUse" id="clipPath7">
<path d="M282 9 L631 9 L631 71 L282 71 L282 9 Z"/>
</clipPath>
<clipPath clipPathUnits="userSpaceOnUse" id="clipPath8">
<path d="M332 17 L581 17 L581 33 L332 33 L332 17 Z"/>
</clipPath>
<clipPath clipPathUnits="userSpaceOnUse" id="clipPath9">
<path d="M-1 -1 L746 -1 L746 321 L-1 321 L-1 -1 Z"/>
</clipPath>
<clipPath clipPathUnits="userSpaceOnUse" id="clipPath10">
<path d="M464 68 L473 68 L473 78 L464 78 L464 68 Z"/>
</clipPath>
<clipPath clipPathUnits="userSpaceOnUse" id="clipPath11">
<path d="M346 102 L408 102 L408 118 L346 118 L346 102 Z"/>
</clipPath>
<clipPath clipPathUnits="userSpaceOnUse" id="clipPath12">
<path d="M534 102 L596 102 L596 118 L534 118 L534 102 Z"/>
</clipPath>
</defs>
<g fill="white" font-family="'Segoe UI'" stroke-linejoin="round" stroke="white" stroke-width="0" stroke-miterlimit="0">
<ellipse clip-path="url(#clipPath1)" rx="74.5" cx="318.5" ry="29.5" cy="171.5" stroke="none"/>
<ellipse clip-path="url(#clipPath1)" rx="74.5" cx="318.5" ry="29.5" cy="171.5" stroke="none"/>
</g>
<g stroke-width="0.1" font-family="'Segoe UI'" stroke-linecap="butt">
<ellipse clip-path="url(#clipPath1)" fill="none" rx="75" cx="319" ry="30" cy="172"/>
<text x="265" y="163" clip-path="url(#clipPath2)" font-family="'Verdana'" stroke="none" xml:space="preserve">UC1.1 Sceglie file</text>
<ellipse clip-path="url(#clipPath3)" fill="white" rx="116" cx="618" ry="29.5" cy="171.5" stroke="none"/>
<ellipse clip-path="url(#clipPath3)" fill="white" rx="116" cx="618" ry="29.5" cy="171.5" stroke="none"/>
<ellipse clip-path="url(#clipPath3)" fill="none" rx="116.5" cx="618.5" ry="30" cy="172"/>
<text x="535" y="163" clip-path="url(#clipPath4)" font-family="'Verdana'" stroke="none" xml:space="preserve">UC1.2 Modifica modello 3D</text>
<ellipse clip-path="url(#clipPath5)" fill="white" rx="115.5" cx="473.5" ry="29.5" cy="279.5" stroke="none"/>
<ellipse clip-path="url(#clipPath5)" fill="white" rx="115.5" cx="473.5" ry="29.5" cy="279.5" stroke="none"/>
<ellipse clip-path="url(#clipPath5)" fill="none" rx="116" cx="474" ry="30" cy="280"/>
<text x="391" y="271" clip-path="url(#clipPath6)" font-family="'Verdana'" stroke="none" xml:space="preserve">UC1.3 Esporta modello 3D</text>
<ellipse clip-path="url(#clipPath7)" fill="white" rx="173" cx="456" ry="29.5" cy="39.5" stroke="none"/>
<ellipse clip-path="url(#clipPath7)" fill="white" rx="173" cx="456" ry="29.5" cy="39.5" stroke="none"/>
<ellipse clip-path="url(#clipPath7)" fill="none" rx="173.5" cx="456.5" ry="30" cy="40"/>
<text x="333" y="31" clip-path="url(#clipPath8)" font-family="'Verdana'" stroke="none" xml:space="preserve">UC1.4 Visualizza anteprima modello 3D</text>
<line clip-path="url(#clipPath9)" fill="none" text-rendering="optimizeLegibility" x1="319" x2="319" y1="202" y2="225" stroke-width="1.1"/>
<line clip-path="url(#clipPath9)" fill="none" text-rendering="optimizeLegibility" x1="319" x2="23" y1="225" y2="225" stroke-width="1.1"/>
<line clip-path="url(#clipPath9)" fill="none" text-rendering="optimizeLegibility" x1="23" x2="23" y1="225" y2="235" stroke-width="1.1"/>
</g>
<g text-rendering="optimizeLegibility" stroke-width="1.1" stroke-dasharray="6.6,3.3" font-family="'Verdana'" stroke-linecap="butt">
<line clip-path="url(#clipPath9)" fill="none" x1="318" x2="318" y1="142" y2="125"/>
<line clip-path="url(#clipPath9)" fill="none" x1="318" x2="468" y1="125" y2="125"/>
<line clip-path="url(#clipPath9)" fill="none" x1="468" x2="468" y1="125" y2="69"/>
<line clip-path="url(#clipPath10)" fill="none" x1="471" x2="468" y1="76" y2="69" stroke-dasharray="none"/>
<line clip-path="url(#clipPath10)" fill="none" x1="468" x2="465" y1="69" y2="76" stroke-dasharray="none"/>
<text x="347" y="116" clip-path="url(#clipPath11)" stroke-dasharray="none" stroke="none" xml:space="preserve">«include»</text>
<line clip-path="url(#clipPath9)" fill="none" x1="618" x2="618" y1="201" y2="225" stroke-dasharray="none"/>
<line clip-path="url(#clipPath9)" fill="none" x1="618" x2="23" y1="225" y2="225" stroke-dasharray="none"/>
<line clip-path="url(#clipPath9)" fill="none" x1="23" x2="23" y1="225" y2="235" stroke-dasharray="none"/>
<line clip-path="url(#clipPath9)" fill="none" x1="618" x2="618" y1="142" y2="125"/>
<line clip-path="url(#clipPath9)" fill="none" x1="618" x2="468" y1="125" y2="125"/>
<line clip-path="url(#clipPath9)" fill="none" x1="468" x2="468" y1="125" y2="69"/>
<line clip-path="url(#clipPath10)" fill="none" x1="471" x2="468" y1="76" y2="69" stroke-dasharray="none"/>
<line clip-path="url(#clipPath10)" fill="none" x1="468" x2="465" y1="69" y2="76" stroke-dasharray="none"/>
<text x="535" y="116" clip-path="url(#clipPath12)" stroke-dasharray="none" stroke="none" xml:space="preserve">«include»</text>
<line clip-path="url(#clipPath9)" fill="none" x1="474" x2="474" y1="250" y2="225" stroke-dasharray="none"/>
<line clip-path="url(#clipPath9)" fill="none" x1="474" x2="23" y1="225" y2="225" stroke-dasharray="none"/>
<line clip-path="url(#clipPath9)" fill="none" x1="23" x2="23" y1="225" y2="235" stroke-dasharray="none"/>
</g>
</g>
</svg>
