<?xml version="1.0" encoding="UTF-8"?><svg xmlns="http://www.w3.org/2000/svg" xmlns:xlink="http://www.w3.org/1999/xlink" stroke-dasharray="none" shape-rendering="auto" font-family="'Dialog'" width="515" text-rendering="auto" fill-opacity="1" contentScriptType="text/ecmascript" color-interpolation="auto" color-rendering="auto" preserveAspectRatio="xMidYMid meet" font-size="12" viewBox="0 0 515 279" fill="black" stroke="black" image-rendering="auto" stroke-miterlimit="10" zoomAndPan="magnify" version="1.0" stroke-linecap="square" stroke-linejoin="miter" contentStyleType="text/css" font-style="normal" height="279" stroke-width="1" stroke-dashoffset="0" font-weight="normal" stroke-opacity="1">
<!--Generated by the Batik Graphics2D SVG Generator-->
<defs id="genericDefs"/>
<g>
<defs id="defs1">
<clipPath clipPathUnits="userSpaceOnUse" id="clipPath1">
<path d="M228 103 L506 103 L506 165 L228 165 L228 103 Z"/>
</clipPath>
<clipPath clipPathUnits="userSpaceOnUse" id="clipPath2">
<path d="M268 111 L466 111 L466 127 L268 127 L268 111 Z"/>
</clipPath>
<clipPath clipPathUnits="userSpaceOnUse" id="clipPath3">
<path d="M262 208 L472 208 L472 270 L262 270 L262 208 Z"/>
</clipPath>
<clipPath clipPathUnits="userSpaceOnUse" id="clipPath4">
<path d="M292 216 L442 216 L442 232 L292 232 L292 216 Z"/>
</clipPath>
<clipPath clipPathUnits="userSpaceOnUse" id="clipPath5">
<path d="M-1 -1 L516 -1 L516 280 L-1 280 L-1 -1 Z"/>
</clipPath>
<clipPath clipPathUnits="userSpaceOnUse" id="clipPath6">
<path d="M363 201 L372 201 L372 211 L363 211 L363 201 Z"/>
</clipPath>
<clipPath clipPathUnits="userSpaceOnUse" id="clipPath7">
<path d="M297 181 L359 181 L359 197 L297 197 L297 181 Z"/>
</clipPath>
</defs>
<g fill="white" font-family="'Segoe UI'" stroke-linejoin="round" stroke="white" stroke-width="0" stroke-miterlimit="0">
<ellipse clip-path="url(#clipPath1)" rx="137.5" cx="366.5" ry="29.5" cy="133.5" stroke="none"/>
<ellipse clip-path="url(#clipPath1)" rx="137.5" cx="366.5" ry="29.5" cy="133.5" stroke="none"/>
</g>
<g stroke-width="0.1" font-family="'Segoe UI'" stroke-linecap="butt">
<ellipse clip-path="url(#clipPath1)" fill="none" rx="138" cx="367" ry="30" cy="134"/>
<text x="269" y="125" clip-path="url(#clipPath2)" font-family="'Verdana'" stroke="none" xml:space="preserve">UC1.1.1 Seleziona percorso file</text>
<ellipse clip-path="url(#clipPath3)" fill="white" rx="103.5" cx="366.5" ry="29.5" cy="238.5" stroke="none"/>
<ellipse clip-path="url(#clipPath3)" fill="white" rx="103.5" cx="366.5" ry="29.5" cy="238.5" stroke="none"/>
<ellipse clip-path="url(#clipPath3)" fill="none" rx="104" cx="367" ry="30" cy="239"/>
<text x="293" y="230" clip-path="url(#clipPath4)" font-family="'Verdana'" stroke="none" xml:space="preserve">UC1.1.2 Sceglie tipo file</text>
<line clip-path="url(#clipPath5)" fill="none" text-rendering="optimizeLegibility" x1="367" x2="367" y1="104" y2="70" stroke-width="1.1"/>
<line clip-path="url(#clipPath5)" fill="none" text-rendering="optimizeLegibility" x1="367" x2="23" y1="70" y2="70" stroke-width="1.1"/>
<line clip-path="url(#clipPath5)" fill="none" text-rendering="optimizeLegibility" x1="23" x2="23" y1="70" y2="102" stroke-width="1.1"/>
</g>
<g text-rendering="optimizeLegibility" stroke-width="1.1" stroke-dasharray="6.6,3.3" font-family="'Verdana'" stroke-linecap="butt">
<line clip-path="url(#clipPath5)" fill="none" x1="367" x2="367" y1="164" y2="177"/>
<line clip-path="url(#clipPath5)" fill="none" x1="367" x2="367" y1="177" y2="177"/>
<line clip-path="url(#clipPath5)" fill="none" x1="367" x2="367" y1="177" y2="209"/>
<line clip-path="url(#clipPath6)" fill="none" x1="364" x2="367" y1="202" y2="209" stroke-dasharray="none"/>
<line clip-path="url(#clipPath6)" fill="none" x1="367" x2="370" y1="209" y2="202" stroke-dasharray="none"/>
<text x="298" y="195" clip-path="url(#clipPath7)" stroke-dasharray="none" stroke="none" xml:space="preserve">«include»</text>
</g>
</g>
</svg>
