<?xml version="1.0" encoding="UTF-8"?><svg xmlns="http://www.w3.org/2000/svg" xmlns:xlink="http://www.w3.org/1999/xlink" stroke-dasharray="none" shape-rendering="auto" font-family="'Dialog'" width="796" text-rendering="auto" fill-opacity="1" contentScriptType="text/ecmascript" color-interpolation="auto" color-rendering="auto" preserveAspectRatio="xMidYMid meet" font-size="12" viewBox="0 0 796 341" fill="black" stroke="black" image-rendering="auto" stroke-miterlimit="10" zoomAndPan="magnify" version="1.0" stroke-linecap="square" stroke-linejoin="miter" contentStyleType="text/css" font-style="normal" height="341" stroke-width="1" stroke-dashoffset="0" font-weight="normal" stroke-opacity="1">
<!--Generated by the Batik Graphics2D SVG Generator-->
<defs id="genericDefs"/>
<g>
<defs id="defs1">
<linearGradient x1="150" x2="150" y1="30" gradientUnits="userSpaceOnUse" y2="331" xlink:type="simple" xlink:actuate="onLoad" id="linearGradient1" xlink:show="other" spreadMethod="pad">
<stop stop-opacity="1" stop-color="rgb(255,128,0)" offset="0%"/>
<stop stop-opacity="1" stop-color="white" offset="100%"/>
</linearGradient>
<clipPath clipPathUnits="userSpaceOnUse" id="clipPath1">
<path d="M149 9 L787 9 L787 332 L149 332 L149 9 Z"/>
</clipPath>
<clipPath clipPathUnits="userSpaceOnUse" id="clipPath2">
<path d="M159 14 L258 14 L258 30 L159 30 L159 14 Z"/>
</clipPath>
<clipPath clipPathUnits="userSpaceOnUse" id="clipPath3">
<path d="M149 29 L787 29 L787 332 L149 332 L149 29 Z"/>
</clipPath>
<clipPath clipPathUnits="userSpaceOnUse" id="clipPath4">
<path d="M304 91 L625 91 L625 153 L304 153 L304 91 Z"/>
</clipPath>
<clipPath clipPathUnits="userSpaceOnUse" id="clipPath5">
<path d="M350 99 L579 99 L579 115 L350 115 L350 99 Z"/>
</clipPath>
<clipPath clipPathUnits="userSpaceOnUse" id="clipPath6">
<path d="M293 207 L635 207 L635 269 L293 269 L293 207 Z"/>
</clipPath>
<clipPath clipPathUnits="userSpaceOnUse" id="clipPath7">
<path d="M342 215 L586 215 L586 231 L342 231 L342 215 Z"/>
</clipPath>
<clipPath clipPathUnits="userSpaceOnUse" id="clipPath8">
<path d="M9 164 L91 164 L91 226 L9 226 L9 164 Z"/>
</clipPath>
<clipPath clipPathUnits="userSpaceOnUse" id="clipPath9">
<path d="M29 220 L74 220 L74 236 L29 236 L29 220 Z"/>
</clipPath>
<clipPath clipPathUnits="userSpaceOnUse" id="clipPath10">
<path d="M-1 -1 L797 -1 L797 342 L-1 342 L-1 -1 Z"/>
</clipPath>
</defs>
<g fill="rgb(255,128,0)" font-family="'Segoe UI'" stroke-linejoin="round" stroke="rgb(255,128,0)" stroke-width="0" stroke-miterlimit="0">
<rect x="150" y="10" clip-path="url(#clipPath1)" width="117" height="20" stroke="none"/>
<rect x="150" y="30" clip-path="url(#clipPath1)" fill="url(#linearGradient1)" width="636" height="301" stroke="none"/>
</g>
<g stroke-width="1.1" font-family="'Segoe UI'" stroke-linecap="butt">
<rect x="150" y="10" clip-path="url(#clipPath1)" fill="none" width="117" height="20"/>
<text x="160" y="28" clip-path="url(#clipPath2)" font-family="'Verdana'" stroke="none" xml:space="preserve">Sistema 3DMob</text>
<rect x="150" y="30" clip-path="url(#clipPath3)" fill="none" width="635" height="300"/>
<ellipse clip-path="url(#clipPath4)" fill="white" rx="159" cx="464" ry="29.5" cy="121.5" stroke="none"/>
<ellipse clip-path="url(#clipPath4)" fill="white" rx="159" cx="464" ry="29.5" cy="121.5" stroke="none"/>
<ellipse clip-path="url(#clipPath4)" fill="none" rx="159.5" cx="464.5" ry="30" cy="122" stroke-width="0.1"/>
<text x="351" y="113" clip-path="url(#clipPath5)" font-family="'Verdana'" stroke="none" stroke-width="0.1" xml:space="preserve">UC1.3.3.1 Seleziona precisione float</text>
<ellipse clip-path="url(#clipPath6)" fill="white" rx="169.5" cx="463.5" ry="29.5" cy="237.5" stroke="none" stroke-width="0.1"/>
<ellipse clip-path="url(#clipPath6)" fill="white" rx="169.5" cx="463.5" ry="29.5" cy="237.5" stroke="none" stroke-width="0.1"/>
<ellipse clip-path="url(#clipPath6)" fill="none" rx="170" cx="464" ry="30" cy="238" stroke-width="0.1"/>
<text x="343" y="229" clip-path="url(#clipPath7)" font-family="'Verdana'" stroke="none" stroke-width="0.1" xml:space="preserve">UC1.3.1.2 Seleziona precisione double</text>
<line clip-path="url(#clipPath3)" fill="none" x1="150" x2="786" y1="30" y2="30"/>
<rect x="150" y="10" clip-path="url(#clipPath1)" fill="none" width="117" height="20" stroke-width="0.1"/>
</g>
<g fill="white" stroke-width="0.1" font-family="'Verdana'" stroke-linecap="butt" stroke="white">
<polygon clip-path="url(#clipPath8)" points=" 50 185 50 191 67 191 67 193 50 193 50 207 67 224 67 225 65 225 49 209 33 225 31 225 31 224 48 207 48 193 31 193 31 191 48 191 48 185 50 185" stroke="none"/>
<circle r="9.5" clip-path="url(#clipPath8)" cx="48.5" cy="174.5" stroke="none"/>
<polygon fill="none" stroke-width="1.1" clip-path="url(#clipPath8)" points=" 50 185 50 191 67 191 67 193 50 193 50 207 67 224 67 225 65 225 49 209 33 225 31 225 31 224 48 207 48 193 31 193 31 191 48 191 48 185 50 185" stroke="black"/>
<circle clip-path="url(#clipPath8)" fill="none" r="10" cx="49" cy="175" stroke="black" stroke-width="1.1"/>
<text x="30" y="234" clip-path="url(#clipPath9)" fill="black" stroke="none" stroke-width="1.1" xml:space="preserve">Utente</text>
</g>
<g text-rendering="optimizeLegibility" stroke-width="1.1" font-family="'Verdana'" stroke-linecap="butt">
<line clip-path="url(#clipPath10)" fill="none" x1="464" x2="464" y1="151" y2="183"/>
<line clip-path="url(#clipPath10)" fill="none" x1="464" x2="100" y1="183" y2="183"/>
<line clip-path="url(#clipPath10)" fill="none" x1="100" x2="100" y1="183" y2="183"/>
<line clip-path="url(#clipPath10)" fill="none" x1="464" x2="464" y1="208" y2="183"/>
<line clip-path="url(#clipPath10)" fill="none" x1="464" x2="100" y1="183" y2="183"/>
<line clip-path="url(#clipPath10)" fill="none" x1="100" x2="100" y1="183" y2="183"/>
</g>
</g>
</svg>
